<?xml version="1.0" standalone="no"?>
<!DOCTYPE svg PUBLIC "-//W3C//DTD SVG 20010904//EN"
 "http://www.w3.org/TR/2001/REC-SVG-20010904/DTD/svg10.dtd">
<svg version="1.0" xmlns="http://www.w3.org/2000/svg"
 width="700.000000pt" height="700.000000pt" viewBox="0 0 700.000000 700.000000"
 preserveAspectRatio="xMidYMid meet">
<metadata>
Created by potrace 1.14, written by Peter Selinger 2001-2017
</metadata>
<g transform="translate(0.000000,700.000000) scale(0.100000,-0.100000)"
fill="#000000" stroke="none">
<path d="M737 6883 c-1 -1 -27 -2 -57 -4 -218 -11 -429 -160 -514 -364 -52
-123 -49 70 -49 -3005 0 -2240 3 -2858 13 -2905 53 -254 246 -437 505 -481 58
-10 5638 -11 5715 -1 275 35 486 243 527 519 3 24 6 1316 6 2873 0 3088 3
2887 -55 3012 -87 191 -270 326 -470 349 -51 6 -5616 13 -5621 7z"/>
</g>
</svg>
